<?xml version="1.0" encoding="UTF-8" standalone="no"?>
<!DOCTYPE svg PUBLIC "-//W3C//DTD SVG 1.1//EN"
 "http://www.w3.org/Graphics/SVG/1.1/DTD/svg11.dtd">
<!-- Generated by graphviz version 2.44.1 (20200629.0846)
 -->
<!-- Pages: 1 -->
<svg width="598pt" height="765pt"
 viewBox="0.00 0.00 598.00 765.00" xmlns="http://www.w3.org/2000/svg" xmlns:xlink="http://www.w3.org/1999/xlink">
<g id="graph0" class="graph" transform="scale(1 1) rotate(0) translate(4 761)">
<polygon fill="white" stroke="transparent" points="-4,4 -4,-761 594,-761 594,4 -4,4"/>
<!-- start -->
<g id="node1" class="node">
<title>start</title>
<polygon fill="none" stroke="black" points="301.82,-731.54 301.82,-746.46 283.18,-757 256.82,-757 238.18,-746.46 238.18,-731.54 256.82,-721 283.18,-721 301.82,-731.54"/>
<text text-anchor="middle" x="270" y="-735.3" font-family="Courier,monospace" font-size="14.00">启动</text>
</g>
<!-- register -->
<g id="node2" class="node">
<title>register</title>
<polygon fill="none" stroke="black" points="129.5,-631.5 129.5,-677.5 410.5,-677.5 410.5,-631.5 129.5,-631.5"/>
<text text-anchor="middle" x="270" y="-662.3" font-family="Courier,monospace" font-size="14.00">注册命令</text>
<polyline fill="none" stroke="black" points="129.5,-654.5 410.5,-654.5 "/>
<text text-anchor="middle" x="270" y="-639.3" font-family="Courier,monospace" font-size="14.00">CommandManager::register_command</text>
</g>
<!-- start&#45;&gt;register -->
<g id="edge1" class="edge">
<title>start&#45;&gt;register</title>
<path fill="none" stroke="black" d="M270,-720.91C270,-710.22 270,-696.18 270,-683.86"/>
<polygon fill="black" stroke="black" points="270,-677.59 272.7,-683.59 270,-680.59 270,-683.59 270,-683.59 270,-683.59 270,-680.59 267.3,-683.59 270,-677.59 270,-677.59"/>
</g>
<!-- args -->
<g id="node3" class="node">
<title>args</title>
<polygon fill="none" stroke="black" points="125.5,-541.5 125.5,-587.5 414.5,-587.5 414.5,-541.5 125.5,-541.5"/>
<text text-anchor="middle" x="270" y="-572.3" font-family="Courier,monospace" font-size="14.00">参数注册</text>
<polyline fill="none" stroke="black" points="125.5,-564.5 414.5,-564.5 "/>
<text text-anchor="middle" x="270" y="-549.3" font-family="Courier,monospace" font-size="14.00">Command::register_command_options</text>
</g>
<!-- register&#45;&gt;args -->
<g id="edge2" class="edge">
<title>register&#45;&gt;args</title>
<path fill="none" stroke="black" d="M270,-631.29C270,-619.93 270,-605.98 270,-593.85"/>
<polygon fill="black" stroke="black" points="270,-587.7 272.7,-593.7 270,-590.7 270,-593.7 270,-593.7 270,-593.7 270,-590.7 267.3,-593.7 270,-587.7 270,-587.7"/>
</g>
<!-- parse -->
<g id="node4" class="node">
<title>parse</title>
<polygon fill="none" stroke="black" points="233,-461.5 233,-497.5 307,-497.5 307,-461.5 233,-461.5"/>
<text text-anchor="middle" x="270" y="-475.8" font-family="Courier,monospace" font-size="14.00">解析参数</text>
</g>
<!-- args&#45;&gt;parse -->
<g id="edge3" class="edge">
<title>args&#45;&gt;parse</title>
<path fill="none" stroke="black" d="M270,-541.26C270,-529.67 270,-515.51 270,-503.77"/>
<polygon fill="black" stroke="black" points="270,-497.54 272.7,-503.54 270,-500.54 270,-503.54 270,-503.54 270,-503.54 270,-500.54 267.3,-503.54 270,-497.54 270,-497.54"/>
</g>
<!-- init -->
<g id="node5" class="node">
<title>init</title>
<polygon fill="none" stroke="black" points="208,-371.5 208,-417.5 332,-417.5 332,-371.5 208,-371.5"/>
<text text-anchor="middle" x="270" y="-402.3" font-family="Courier,monospace" font-size="14.00">初始化命令</text>
<polyline fill="none" stroke="black" points="208,-394.5 332,-394.5 "/>
<text text-anchor="middle" x="270" y="-379.3" font-family="Courier,monospace" font-size="14.00">Command::init</text>
</g>
<!-- parse&#45;&gt;init -->
<g id="edge4" class="edge">
<title>parse&#45;&gt;init</title>
<path fill="none" stroke="black" d="M270,-461.3C270,-450.55 270,-436.43 270,-424.03"/>
<polygon fill="black" stroke="black" points="270,-417.73 272.7,-423.73 270,-420.73 270,-423.73 270,-423.73 270,-423.73 270,-420.73 267.3,-423.73 270,-417.73 270,-417.73"/>
</g>
<!-- check -->
<g id="node7" class="node">
<title>check</title>
<polygon fill="none" stroke="black" points="270,-328 191.37,-299 270,-270 348.63,-299 270,-328"/>
<text text-anchor="middle" x="270" y="-295.3" font-family="Courier,monospace" font-size="14.00">检查文件队列</text>
</g>
<!-- init&#45;&gt;check -->
<g id="edge5" class="edge">
<title>init&#45;&gt;check</title>
<path fill="none" stroke="black" d="M270,-371.34C270,-360.31 270,-346.71 270,-334.36"/>
<polygon fill="black" stroke="black" points="270,-328.04 272.7,-334.04 270,-331.04 270,-334.04 270,-334.04 270,-334.04 270,-331.04 267.3,-334.04 270,-328.04 270,-328.04"/>
</g>
<!-- read -->
<g id="node6" class="node">
<title>read</title>
<polygon fill="none" stroke="black" points="458,-185.5 458,-221.5 532,-221.5 532,-185.5 458,-185.5"/>
<text text-anchor="middle" x="495" y="-199.8" font-family="Courier,monospace" font-size="14.00">解压破壳</text>
</g>
<!-- load_objects -->
<g id="node8" class="node">
<title>load_objects</title>
<polygon fill="none" stroke="black" points="400,-90.5 400,-136.5 590,-136.5 590,-90.5 400,-90.5"/>
<text text-anchor="middle" x="495" y="-121.3" font-family="Courier,monospace" font-size="14.00">加载对象</text>
<polyline fill="none" stroke="black" points="400,-113.5 590,-113.5 "/>
<text text-anchor="middle" x="495" y="-98.3" font-family="Courier,monospace" font-size="14.00">Command::load_objects</text>
</g>
<!-- read&#45;&gt;load_objects -->
<g id="edge7" class="edge">
<title>read&#45;&gt;load_objects</title>
<path fill="none" stroke="black" d="M495,-185.11C495,-173.04 495,-156.68 495,-142.75"/>
<polygon fill="black" stroke="black" points="495,-136.54 497.7,-142.54 495,-139.54 495,-142.54 495,-142.54 495,-142.54 495,-139.54 492.3,-142.54 495,-136.54 495,-136.54"/>
</g>
<!-- check&#45;&gt;read -->
<g id="edge6" class="edge">
<title>check:e&#45;&gt;read:n</title>
<path fill="none" stroke="black" d="M350,-299C420.73,-299 490.77,-295.57 494.82,-228.73"/>
<polygon fill="black" stroke="black" points="495,-222.5 497.52,-228.58 494.91,-225.5 494.82,-228.5 494.82,-228.5 494.82,-228.5 494.91,-225.5 492.12,-228.42 495,-222.5 495,-222.5"/>
<text text-anchor="middle" x="354.5" y="-302.8" font-family="Courier,monospace" font-size="14.00">Y</text>
</g>
<!-- finish -->
<g id="node10" class="node">
<title>finish</title>
<polygon fill="none" stroke="black" points="0,-180.5 0,-226.5 140,-226.5 140,-180.5 0,-180.5"/>
<text text-anchor="middle" x="70" y="-211.3" font-family="Courier,monospace" font-size="14.00">结束</text>
<polyline fill="none" stroke="black" points="0,-203.5 140,-203.5 "/>
<text text-anchor="middle" x="70" y="-188.3" font-family="Courier,monospace" font-size="14.00">Command::finish</text>
</g>
<!-- check&#45;&gt;finish -->
<g id="edge10" class="edge">
<title>check:w&#45;&gt;finish:e</title>
<path fill="none" stroke="black" d="M190,-299C144.53,-299 184.56,-212.24 147.11,-204.11"/>
<polygon fill="black" stroke="black" points="141,-203.5 147.24,-201.41 143.99,-203.8 146.97,-204.1 146.97,-204.1 146.97,-204.1 143.99,-203.8 146.7,-206.78 141,-203.5 141,-203.5"/>
<text text-anchor="middle" x="185.5" y="-302.8" font-family="Courier,monospace" font-size="14.00">N</text>
</g>
<!-- process -->
<g id="node9" class="node">
<title>process</title>
<polygon fill="none" stroke="black" points="420.5,-0.5 420.5,-46.5 569.5,-46.5 569.5,-0.5 420.5,-0.5"/>
<text text-anchor="middle" x="495" y="-31.3" font-family="Courier,monospace" font-size="14.00">处理文件</text>
<polyline fill="none" stroke="black" points="420.5,-23.5 569.5,-23.5 "/>
<text text-anchor="middle" x="495" y="-8.3" font-family="Courier,monospace" font-size="14.00">Command::process</text>
</g>
<!-- load_objects&#45;&gt;process -->
<g id="edge8" class="edge">
<title>load_objects&#45;&gt;process</title>
<path fill="none" stroke="black" d="M495,-90.29C495,-78.93 495,-64.98 495,-52.85"/>
<polygon fill="black" stroke="black" points="495,-46.7 497.7,-52.7 495,-49.7 495,-52.7 495,-52.7 495,-52.7 495,-49.7 492.3,-52.7 495,-46.7 495,-46.7"/>
</g>
<!-- process&#45;&gt;check -->
<g id="edge9" class="edge">
<title>process:w&#45;&gt;check:s</title>
<path fill="none" stroke="black" d="M419,-23.5C293.11,-23.5 270.73,-138.08 270.02,-263.63"/>
<polygon fill="black" stroke="black" points="270,-270 267.32,-263.99 270.01,-267 270.02,-264 270.02,-264 270.02,-264 270.01,-267 272.72,-264.01 270,-270 270,-270"/>
<text text-anchor="middle" x="412" y="-27.3" font-family="Courier,monospace" font-size="14.00">⟳</text>
</g>
<!-- exit -->
<g id="node11" class="node">
<title>exit</title>
<ellipse fill="none" stroke="black" cx="70" cy="-113.5" rx="29.5" ry="18"/>
<text text-anchor="middle" x="70" y="-109.8" font-family="Courier,monospace" font-size="14.00">退出</text>
</g>
<!-- finish&#45;&gt;exit -->
<g id="edge11" class="edge">
<title>finish&#45;&gt;exit</title>
<path fill="none" stroke="black" d="M70,-180.29C70,-167.34 70,-151.02 70,-137.87"/>
<polygon fill="black" stroke="black" points="70,-131.7 72.7,-137.7 70,-134.7 70,-137.7 70,-137.7 70,-137.7 70,-134.7 67.3,-137.7 70,-131.7 70,-131.7"/>
</g>
</g>
</svg>
