<?xml version="1.0" encoding="UTF-8" standalone="no"?>
<!DOCTYPE svg PUBLIC "-//W3C//DTD SVG 1.1//EN"
 "http://www.w3.org/Graphics/SVG/1.1/DTD/svg11.dtd">
<!-- Generated by graphviz version 2.44.1 (20200629.0846)
 -->
<!-- Pages: 1 -->
<svg width="633pt" height="621pt"
 viewBox="0.00 0.00 633.00 621.00" xmlns="http://www.w3.org/2000/svg" xmlns:xlink="http://www.w3.org/1999/xlink">
<g id="graph0" class="graph" transform="scale(1 1) rotate(0) translate(36 585)">
<!-- project -->
<g id="node1" class="node">
<title>project</title>
<polygon fill="none" stroke="black" points="68,-174 0,-174 0,-138 74,-138 74,-168 68,-174"/>
<polyline fill="none" stroke="black" points="68,-174 68,-168 "/>
<polyline fill="none" stroke="black" points="74,-168 68,-168 "/>
<text text-anchor="middle" x="37" y="-152.3" font-family="Courier,monospace" font-size="14.00">项目结构</text>
</g>
<!-- coding -->
<g id="node2" class="node">
<title>coding</title>
<polygon fill="none" stroke="black" points="200,-470 132,-470 132,-434 206,-434 206,-464 200,-470"/>
<polyline fill="none" stroke="black" points="200,-470 200,-464 "/>
<polyline fill="none" stroke="black" points="206,-464 200,-464 "/>
<text text-anchor="middle" x="169" y="-448.3" font-family="Courier,monospace" font-size="14.00">资源解析</text>
</g>
<!-- project&#45;&gt;coding -->
<g id="edge1" class="edge">
<title>project&#45;&gt;coding</title>
<path fill="none" stroke="black" d="M45.94,-174.07C67.69,-223.61 128.44,-361.93 155.14,-422.72"/>
<polygon fill="none" stroke="black" points="155.18,-422.8 161.25,-426.69 160,-433.79 153.93,-429.9 155.18,-422.8"/>
</g>
<!-- codegen -->
<g id="node3" class="node">
<title>codegen</title>
<polygon fill="none" stroke="black" points="200,-234 132,-234 132,-198 206,-198 206,-228 200,-234"/>
<polyline fill="none" stroke="black" points="200,-234 200,-228 "/>
<polyline fill="none" stroke="black" points="206,-228 200,-228 "/>
<text text-anchor="middle" x="169" y="-212.3" font-family="Courier,monospace" font-size="14.00">代码生成</text>
</g>
<!-- project&#45;&gt;codegen -->
<g id="edge6" class="edge">
<title>project&#45;&gt;codegen</title>
<path fill="none" stroke="black" d="M74.21,-172.71C88.72,-179.41 105.63,-187.21 121.06,-194.34"/>
<polygon fill="none" stroke="black" points="121.09,-194.35 128.21,-193.23 131.98,-199.38 124.86,-200.49 121.09,-194.35"/>
</g>
<!-- 命令封装 -->
<g id="node14" class="node">
<title>命令封装</title>
<polygon fill="none" stroke="black" points="200,-135 132,-135 132,-99 206,-99 206,-129 200,-135"/>
<polyline fill="none" stroke="black" points="200,-135 200,-129 "/>
<polyline fill="none" stroke="black" points="206,-129 200,-129 "/>
<text text-anchor="middle" x="169" y="-113.3" font-family="Courier,monospace" font-size="14.00">命令封装</text>
</g>
<!-- project&#45;&gt;命令封装 -->
<g id="edge13" class="edge">
<title>project&#45;&gt;命令封装</title>
<path fill="none" stroke="black" d="M74.21,-145.14C88.44,-140.87 104.97,-135.91 120.16,-131.35"/>
<polygon fill="none" stroke="black" points="120.49,-131.25 125.09,-125.7 131.98,-127.81 127.38,-133.36 120.49,-131.25"/>
</g>
<!-- 文件系统 -->
<g id="node17" class="node">
<title>文件系统</title>
<polygon fill="none" stroke="black" points="200,-56 132,-56 132,-20 206,-20 206,-50 200,-56"/>
<polyline fill="none" stroke="black" points="200,-56 200,-50 "/>
<polyline fill="none" stroke="black" points="206,-50 200,-50 "/>
<text text-anchor="middle" x="169" y="-34.3" font-family="Courier,monospace" font-size="14.00">文件系统</text>
</g>
<!-- project&#45;&gt;文件系统 -->
<g id="edge16" class="edge">
<title>project&#45;&gt;文件系统</title>
<path fill="none" stroke="black" d="M58.03,-137.82C79.75,-118.1 114.62,-86.45 139.27,-64.08"/>
<polygon fill="none" stroke="black" points="139.28,-64.07 141.03,-57.08 148.16,-56.01 146.41,-63 139.28,-64.07"/>
</g>
<!-- AssetBundleArchive -->
<g id="node8" class="node">
<title>AssetBundleArchive</title>
<polygon fill="none" stroke="black" points="423,-549 264,-549 264,-513 429,-513 429,-543 423,-549"/>
<polyline fill="none" stroke="black" points="423,-549 423,-543 "/>
<polyline fill="none" stroke="black" points="429,-543 423,-543 "/>
<text text-anchor="middle" x="346.5" y="-527.3" font-family="Courier,monospace" font-size="14.00">AssetBundleArchive</text>
</g>
<!-- coding&#45;&gt;AssetBundleArchive -->
<g id="edge2" class="edge">
<title>coding&#45;&gt;AssetBundleArchive</title>
<path fill="none" stroke="black" d="M206.36,-468.37C231.78,-479.81 266.07,-495.25 294.25,-507.93"/>
<polygon fill="none" stroke="black" points="294.57,-508.07 301.68,-506.89 305.51,-513 298.4,-514.18 294.57,-508.07"/>
</g>
<!-- SerializedFile -->
<g id="node9" class="node">
<title>SerializedFile</title>
<polygon fill="none" stroke="black" points="406.5,-470 280.5,-470 280.5,-434 412.5,-434 412.5,-464 406.5,-470"/>
<polyline fill="none" stroke="black" points="406.5,-470 406.5,-464 "/>
<polyline fill="none" stroke="black" points="412.5,-464 406.5,-464 "/>
<text text-anchor="middle" x="346.5" y="-448.3" font-family="Courier,monospace" font-size="14.00">SerializedFile</text>
</g>
<!-- coding&#45;&gt;SerializedFile -->
<g id="edge4" class="edge">
<title>coding&#45;&gt;SerializedFile</title>
<path fill="none" stroke="black" d="M206.36,-452C224.32,-452 246.72,-452 268.26,-452"/>
<polygon fill="none" stroke="black" points="268.45,-452 274.45,-448 280.45,-452 274.45,-456 268.45,-452"/>
</g>
<!-- methods -->
<g id="node4" class="node">
<title>methods</title>
<polygon fill="none" stroke="black" points="377.5,-352 309.5,-352 309.5,-316 383.5,-316 383.5,-346 377.5,-352"/>
<polyline fill="none" stroke="black" points="377.5,-352 377.5,-346 "/>
<polyline fill="none" stroke="black" points="383.5,-346 377.5,-346 "/>
<text text-anchor="middle" x="346.5" y="-330.3" font-family="Courier,monospace" font-size="14.00">对象方法</text>
</g>
<!-- codegen&#45;&gt;methods -->
<g id="edge7" class="edge">
<title>codegen&#45;&gt;methods</title>
<path fill="none" stroke="black" d="M191.8,-234.32C219.57,-257.66 264,-295 264,-295 264,-295 280.16,-302.73 298.09,-311.31"/>
<polygon fill="none" stroke="black" points="298.22,-311.37 305.36,-310.36 309.04,-316.55 301.9,-317.57 298.22,-311.37"/>
</g>
<!-- b3 -->
<g id="node7" class="node">
<title>b3</title>
<polygon fill="none" stroke="black" points="375.5,-273 311.5,-273 311.5,-237 381.5,-237 381.5,-267 375.5,-273"/>
<polyline fill="none" stroke="black" points="375.5,-273 375.5,-267 "/>
<polyline fill="none" stroke="black" points="381.5,-267 375.5,-267 "/>
<text text-anchor="middle" x="346.5" y="-251.3" font-family="Courier,monospace" font-size="14.00">LUA绑定</text>
</g>
<!-- codegen&#45;&gt;b3 -->
<g id="edge8" class="edge">
<title>codegen&#45;&gt;b3</title>
<path fill="none" stroke="black" d="M206.36,-224.08C233.33,-230.07 270.3,-238.29 299.36,-244.75"/>
<polygon fill="none" stroke="black" points="299.56,-244.79 306.28,-242.19 311.27,-247.39 304.54,-250 299.56,-244.79"/>
</g>
<!-- 数据结构 -->
<g id="node10" class="node">
<title>数据结构</title>
<polygon fill="none" stroke="black" points="377.5,-194 309.5,-194 309.5,-158 383.5,-158 383.5,-188 377.5,-194"/>
<polyline fill="none" stroke="black" points="377.5,-194 377.5,-188 "/>
<polyline fill="none" stroke="black" points="383.5,-188 377.5,-188 "/>
<text text-anchor="middle" x="346.5" y="-172.3" font-family="Courier,monospace" font-size="14.00">数据结构</text>
</g>
<!-- codegen&#45;&gt;数据结构 -->
<g id="edge9" class="edge">
<title>codegen&#45;&gt;数据结构</title>
<path fill="none" stroke="black" d="M206.36,-207.71C232.81,-201.69 268.86,-193.47 297.64,-186.91"/>
<polygon fill="none" stroke="black" points="297.78,-186.88 302.74,-181.64 309.48,-184.21 304.52,-189.44 297.78,-186.88"/>
</g>
<!-- 数据编码 -->
<g id="node11" class="node">
<title>数据编码</title>
<polygon fill="none" stroke="black" points="555,-391 487,-391 487,-355 561,-355 561,-385 555,-391"/>
<polyline fill="none" stroke="black" points="555,-391 555,-385 "/>
<polyline fill="none" stroke="black" points="561,-385 555,-385 "/>
<text text-anchor="middle" x="524" y="-369.3" font-family="Courier,monospace" font-size="14.00">数据编码</text>
</g>
<!-- methods&#45;&gt;数据编码 -->
<g id="edge10" class="edge">
<title>methods&#45;&gt;数据编码</title>
<path fill="none" stroke="black" d="M383.86,-342.08C410.31,-347.96 446.36,-355.97 475.14,-362.37"/>
<polygon fill="none" stroke="black" points="475.27,-362.39 481.99,-359.79 486.98,-365 480.26,-367.6 475.27,-362.39"/>
</g>
<!-- 数据解码 -->
<g id="node12" class="node">
<title>数据解码</title>
<polygon fill="none" stroke="black" points="555,-312 487,-312 487,-276 561,-276 561,-306 555,-312"/>
<polyline fill="none" stroke="black" points="555,-312 555,-306 "/>
<polyline fill="none" stroke="black" points="561,-306 555,-306 "/>
<text text-anchor="middle" x="524" y="-290.3" font-family="Courier,monospace" font-size="14.00">数据解码</text>
</g>
<!-- methods&#45;&gt;数据解码 -->
<g id="edge11" class="edge">
<title>methods&#45;&gt;数据解码</title>
<path fill="none" stroke="black" d="M383.86,-325.71C410.31,-319.69 446.36,-311.47 475.14,-304.91"/>
<polygon fill="none" stroke="black" points="475.28,-304.88 480.24,-299.64 486.98,-302.21 482.02,-307.44 475.28,-304.88"/>
</g>
<!-- 对象打印 -->
<g id="node13" class="node">
<title>对象打印</title>
<polygon fill="none" stroke="black" points="555,-233 487,-233 487,-197 561,-197 561,-227 555,-233"/>
<polyline fill="none" stroke="black" points="555,-233 555,-227 "/>
<polyline fill="none" stroke="black" points="561,-227 555,-227 "/>
<text text-anchor="middle" x="524" y="-211.3" font-family="Courier,monospace" font-size="14.00">对象打印</text>
</g>
<!-- methods&#45;&gt;对象打印 -->
<g id="edge12" class="edge">
<title>methods&#45;&gt;对象打印</title>
<path fill="none" stroke="black" d="M383.96,-316.55C405.66,-306.17 429,-295 429,-295 429,-295 464.96,-264.4 492.39,-241.05"/>
<polygon fill="none" stroke="black" points="492.53,-240.93 494.51,-234 501.67,-233.15 499.69,-240.09 492.53,-240.93"/>
</g>
<!-- b1 -->
<g id="node5" class="node">
<title>b1</title>
<polygon fill="none" stroke="black" points="553,-549 489,-549 489,-513 559,-513 559,-543 553,-549"/>
<polyline fill="none" stroke="black" points="553,-549 553,-543 "/>
<polyline fill="none" stroke="black" points="559,-543 553,-543 "/>
<text text-anchor="middle" x="524" y="-527.3" font-family="Courier,monospace" font-size="14.00">LUA绑定</text>
</g>
<!-- b2 -->
<g id="node6" class="node">
<title>b2</title>
<polygon fill="none" stroke="black" points="553,-470 489,-470 489,-434 559,-434 559,-464 553,-470"/>
<polyline fill="none" stroke="black" points="553,-470 553,-464 "/>
<polyline fill="none" stroke="black" points="559,-464 553,-464 "/>
<text text-anchor="middle" x="524" y="-448.3" font-family="Courier,monospace" font-size="14.00">LUA绑定</text>
</g>
<!-- AssetBundleArchive&#45;&gt;b1 -->
<g id="edge3" class="edge">
<title>AssetBundleArchive&#45;&gt;b1</title>
<path fill="none" stroke="black" d="M429.08,-531C445.42,-531 462.05,-531 476.68,-531"/>
<polygon fill="none" stroke="black" points="476.97,-531 482.97,-527 488.97,-531 482.97,-535 476.97,-531"/>
</g>
<!-- SerializedFile&#45;&gt;b2 -->
<g id="edge5" class="edge">
<title>SerializedFile&#45;&gt;b2</title>
<path fill="none" stroke="black" d="M412.85,-452C433.95,-452 456.91,-452 476.38,-452"/>
<polygon fill="none" stroke="black" points="476.61,-452 482.61,-448 488.61,-452 482.61,-456 476.61,-452"/>
</g>
<!-- 参数解析 -->
<g id="node15" class="node">
<title>参数解析</title>
<polygon fill="none" stroke="black" points="377.5,-115 309.5,-115 309.5,-79 383.5,-79 383.5,-109 377.5,-115"/>
<polyline fill="none" stroke="black" points="377.5,-115 377.5,-109 "/>
<polyline fill="none" stroke="black" points="383.5,-109 377.5,-109 "/>
<text text-anchor="middle" x="346.5" y="-93.3" font-family="Courier,monospace" font-size="14.00">参数解析</text>
</g>
<!-- 命令封装&#45;&gt;参数解析 -->
<g id="edge14" class="edge">
<title>命令封装&#45;&gt;参数解析</title>
<path fill="none" stroke="black" d="M206.36,-112.86C232.69,-109.86 268.54,-105.77 297.26,-102.5"/>
<polygon fill="none" stroke="black" points="297.56,-102.46 303.07,-97.81 309.48,-101.1 303.98,-105.76 297.56,-102.46"/>
</g>
<!-- 生命周期 -->
<g id="node16" class="node">
<title>生命周期</title>
<polygon fill="none" stroke="black" points="377.5,-36 309.5,-36 309.5,0 383.5,0 383.5,-30 377.5,-36"/>
<polyline fill="none" stroke="black" points="377.5,-36 377.5,-30 "/>
<polyline fill="none" stroke="black" points="383.5,-30 377.5,-30 "/>
<text text-anchor="middle" x="346.5" y="-14.3" font-family="Courier,monospace" font-size="14.00">生命周期</text>
</g>
<!-- 命令封装&#45;&gt;生命周期 -->
<g id="edge15" class="edge">
<title>命令封装&#45;&gt;生命周期</title>
<path fill="none" stroke="black" d="M198.2,-99C225.89,-81.32 264,-57 264,-57 264,-57 280.16,-49.27 298.09,-40.69"/>
<polygon fill="none" stroke="black" points="298.22,-40.63 301.9,-34.43 309.04,-35.45 305.36,-41.64 298.22,-40.63"/>
</g>
</g>
</svg>
