<?xml version="1.0" encoding="UTF-8" standalone="no"?>
<!DOCTYPE svg PUBLIC "-//W3C//DTD SVG 1.1//EN"
 "http://www.w3.org/Graphics/SVG/1.1/DTD/svg11.dtd">
<!-- Generated by graphviz version 2.44.1 (20200629.0846)
 -->
<!-- Pages: 1 -->
<svg width="597pt" height="621pt"
 viewBox="0.00 0.00 597.00 621.00" xmlns="http://www.w3.org/2000/svg" xmlns:xlink="http://www.w3.org/1999/xlink">
<g id="graph0" class="graph" transform="scale(1 1) rotate(0) translate(36 585)">
<!-- project -->
<g id="node1" class="node">
<title>project</title>
<polygon fill="none" stroke="black" points="68,-174 0,-174 0,-138 74,-138 74,-168 68,-174"/>
<polyline fill="none" stroke="black" points="68,-174 68,-168 "/>
<polyline fill="none" stroke="black" points="74,-168 68,-168 "/>
<text text-anchor="middle" x="37" y="-152.3" font-family="Times,serif" font-size="14.00">工程结构</text>
</g>
<!-- coding -->
<g id="node2" class="node">
<title>coding</title>
<polygon fill="none" stroke="black" points="200,-470 132,-470 132,-434 206,-434 206,-464 200,-470"/>
<polyline fill="none" stroke="black" points="200,-470 200,-464 "/>
<polyline fill="none" stroke="black" points="206,-464 200,-464 "/>
<text text-anchor="middle" x="169" y="-448.3" font-family="Times,serif" font-size="14.00">资源解析</text>
</g>
<!-- project&#45;&gt;coding -->
<g id="edge1" class="edge">
<title>project&#45;&gt;coding</title>
<path fill="none" stroke="black" d="M45.94,-174.07C67.69,-223.61 128.44,-361.93 155.14,-422.72"/>
<polygon fill="none" stroke="black" points="155.18,-422.8 161.25,-426.69 160,-433.79 153.93,-429.9 155.18,-422.8"/>
</g>
<!-- codegen -->
<g id="node3" class="node">
<title>codegen</title>
<polygon fill="none" stroke="black" points="200,-234 132,-234 132,-198 206,-198 206,-228 200,-234"/>
<polyline fill="none" stroke="black" points="200,-234 200,-228 "/>
<polyline fill="none" stroke="black" points="206,-228 200,-228 "/>
<text text-anchor="middle" x="169" y="-212.3" font-family="Times,serif" font-size="14.00">代码生成</text>
</g>
<!-- project&#45;&gt;codegen -->
<g id="edge6" class="edge">
<title>project&#45;&gt;codegen</title>
<path fill="none" stroke="black" d="M74.21,-172.71C88.72,-179.41 105.63,-187.21 121.06,-194.34"/>
<polygon fill="none" stroke="black" points="121.09,-194.35 128.21,-193.23 131.98,-199.38 124.86,-200.49 121.09,-194.35"/>
</g>
<!-- 命令封装 -->
<g id="node14" class="node">
<title>命令封装</title>
<polygon fill="none" stroke="black" points="200,-135 132,-135 132,-99 206,-99 206,-129 200,-135"/>
<polyline fill="none" stroke="black" points="200,-135 200,-129 "/>
<polyline fill="none" stroke="black" points="206,-129 200,-129 "/>
<text text-anchor="middle" x="169" y="-113.3" font-family="Times,serif" font-size="14.00">命令封装</text>
</g>
<!-- project&#45;&gt;命令封装 -->
<g id="edge13" class="edge">
<title>project&#45;&gt;命令封装</title>
<path fill="none" stroke="black" d="M74.21,-145.14C88.44,-140.87 104.97,-135.91 120.16,-131.35"/>
<polygon fill="none" stroke="black" points="120.49,-131.25 125.09,-125.7 131.98,-127.81 127.38,-133.36 120.49,-131.25"/>
</g>
<!-- 文件系统 -->
<g id="node17" class="node">
<title>文件系统</title>
<polygon fill="none" stroke="black" points="200,-56 132,-56 132,-20 206,-20 206,-50 200,-56"/>
<polyline fill="none" stroke="black" points="200,-56 200,-50 "/>
<polyline fill="none" stroke="black" points="206,-50 200,-50 "/>
<text text-anchor="middle" x="169" y="-34.3" font-family="Times,serif" font-size="14.00">文件系统</text>
</g>
<!-- project&#45;&gt;文件系统 -->
<g id="edge16" class="edge">
<title>project&#45;&gt;文件系统</title>
<path fill="none" stroke="black" d="M58.03,-137.82C79.75,-118.1 114.62,-86.45 139.27,-64.08"/>
<polygon fill="none" stroke="black" points="139.28,-64.07 141.03,-57.08 148.16,-56.01 146.41,-63 139.28,-64.07"/>
</g>
<!-- AssetBundleArchive -->
<g id="node8" class="node">
<title>AssetBundleArchive</title>
<polygon fill="none" stroke="black" points="387,-549 264,-549 264,-513 393,-513 393,-543 387,-549"/>
<polyline fill="none" stroke="black" points="387,-549 387,-543 "/>
<polyline fill="none" stroke="black" points="393,-543 387,-543 "/>
<text text-anchor="middle" x="328.5" y="-527.3" font-family="Times,serif" font-size="14.00">AssetBundleArchive</text>
</g>
<!-- coding&#45;&gt;AssetBundleArchive -->
<g id="edge2" class="edge">
<title>coding&#45;&gt;AssetBundleArchive</title>
<path fill="none" stroke="black" d="M206.13,-470.12C228.24,-481.21 256.77,-495.52 280.6,-507.48"/>
<polygon fill="none" stroke="black" points="280.81,-507.58 287.96,-506.69 291.53,-512.96 284.38,-513.85 280.81,-507.58"/>
</g>
<!-- SerializedFile -->
<g id="node9" class="node">
<title>SerializedFile</title>
<polygon fill="none" stroke="black" points="368.5,-470 282.5,-470 282.5,-434 374.5,-434 374.5,-464 368.5,-470"/>
<polyline fill="none" stroke="black" points="368.5,-470 368.5,-464 "/>
<polyline fill="none" stroke="black" points="374.5,-464 368.5,-464 "/>
<text text-anchor="middle" x="328.5" y="-448.3" font-family="Times,serif" font-size="14.00">SerializedFile</text>
</g>
<!-- coding&#45;&gt;SerializedFile -->
<g id="edge4" class="edge">
<title>coding&#45;&gt;SerializedFile</title>
<path fill="none" stroke="black" d="M206.13,-452C225.04,-452 248.63,-452 269.97,-452"/>
<polygon fill="none" stroke="black" points="270.23,-452 276.23,-448 282.23,-452 276.23,-456 270.23,-452"/>
</g>
<!-- methods -->
<g id="node4" class="node">
<title>methods</title>
<polygon fill="none" stroke="black" points="359.5,-352 291.5,-352 291.5,-316 365.5,-316 365.5,-346 359.5,-352"/>
<polyline fill="none" stroke="black" points="359.5,-352 359.5,-346 "/>
<polyline fill="none" stroke="black" points="365.5,-346 359.5,-346 "/>
<text text-anchor="middle" x="328.5" y="-330.3" font-family="Times,serif" font-size="14.00">对象方法</text>
</g>
<!-- codegen&#45;&gt;methods -->
<g id="edge7" class="edge">
<title>codegen&#45;&gt;methods</title>
<path fill="none" stroke="black" d="M191.8,-234.32C219.57,-257.66 264,-295 264,-295 264,-295 274.83,-301.65 287.55,-309.46"/>
<polygon fill="none" stroke="black" points="287.76,-309.59 294.96,-309.32 297.98,-315.87 290.77,-316.14 287.76,-309.59"/>
</g>
<!-- b3 -->
<g id="node7" class="node">
<title>b3</title>
<polygon fill="none" stroke="black" points="359,-273 292,-273 292,-237 365,-237 365,-267 359,-273"/>
<polyline fill="none" stroke="black" points="359,-273 359,-267 "/>
<polyline fill="none" stroke="black" points="365,-267 359,-267 "/>
<text text-anchor="middle" x="328.5" y="-251.3" font-family="Times,serif" font-size="14.00">LUA绑定</text>
</g>
<!-- codegen&#45;&gt;b3 -->
<g id="edge8" class="edge">
<title>codegen&#45;&gt;b3</title>
<path fill="none" stroke="black" d="M206.13,-224.95C228.02,-230.37 256.19,-237.34 279.88,-243.21"/>
<polygon fill="none" stroke="black" points="280.16,-243.28 286.94,-240.84 291.81,-246.16 285.02,-248.6 280.16,-243.28"/>
</g>
<!-- 数据结构 -->
<g id="node10" class="node">
<title>数据结构</title>
<polygon fill="none" stroke="black" points="359.5,-194 291.5,-194 291.5,-158 365.5,-158 365.5,-188 359.5,-194"/>
<polyline fill="none" stroke="black" points="359.5,-194 359.5,-188 "/>
<polyline fill="none" stroke="black" points="365.5,-188 359.5,-188 "/>
<text text-anchor="middle" x="328.5" y="-172.3" font-family="Times,serif" font-size="14.00">数据结构</text>
</g>
<!-- codegen&#45;&gt;数据结构 -->
<g id="edge9" class="edge">
<title>codegen&#45;&gt;数据结构</title>
<path fill="none" stroke="black" d="M206.13,-206.82C227.87,-201.3 255.79,-194.21 279.38,-188.22"/>
<polygon fill="none" stroke="black" points="279.63,-188.16 284.46,-182.8 291.26,-185.2 286.43,-190.56 279.63,-188.16"/>
</g>
<!-- 数据编码 -->
<g id="node11" class="node">
<title>数据编码</title>
<polygon fill="none" stroke="black" points="519,-391 451,-391 451,-355 525,-355 525,-385 519,-391"/>
<polyline fill="none" stroke="black" points="519,-391 519,-385 "/>
<polyline fill="none" stroke="black" points="525,-385 519,-385 "/>
<text text-anchor="middle" x="488" y="-369.3" font-family="Times,serif" font-size="14.00">数据编码</text>
</g>
<!-- methods&#45;&gt;数据编码 -->
<g id="edge10" class="edge">
<title>methods&#45;&gt;数据编码</title>
<path fill="none" stroke="black" d="M365.63,-342.95C387.37,-348.33 415.29,-355.24 438.88,-361.08"/>
<polygon fill="none" stroke="black" points="439.11,-361.14 445.9,-358.7 450.76,-364.03 443.98,-366.47 439.11,-361.14"/>
</g>
<!-- 数据解码 -->
<g id="node12" class="node">
<title>数据解码</title>
<polygon fill="none" stroke="black" points="519,-312 451,-312 451,-276 525,-276 525,-306 519,-312"/>
<polyline fill="none" stroke="black" points="519,-312 519,-306 "/>
<polyline fill="none" stroke="black" points="525,-306 519,-306 "/>
<text text-anchor="middle" x="488" y="-290.3" font-family="Times,serif" font-size="14.00">数据解码</text>
</g>
<!-- methods&#45;&gt;数据解码 -->
<g id="edge11" class="edge">
<title>methods&#45;&gt;数据解码</title>
<path fill="none" stroke="black" d="M365.63,-324.82C387.37,-319.3 415.29,-312.21 438.88,-306.22"/>
<polygon fill="none" stroke="black" points="439.13,-306.16 443.96,-300.8 450.76,-303.2 445.93,-308.56 439.13,-306.16"/>
</g>
<!-- 对象打印 -->
<g id="node13" class="node">
<title>对象打印</title>
<polygon fill="none" stroke="black" points="519,-233 451,-233 451,-197 525,-197 525,-227 519,-233"/>
<polyline fill="none" stroke="black" points="519,-233 519,-227 "/>
<polyline fill="none" stroke="black" points="525,-227 519,-227 "/>
<text text-anchor="middle" x="488" y="-211.3" font-family="Times,serif" font-size="14.00">对象打印</text>
</g>
<!-- methods&#45;&gt;对象打印 -->
<g id="edge12" class="edge">
<title>methods&#45;&gt;对象打印</title>
<path fill="none" stroke="black" d="M359.02,-315.87C375.6,-305.69 393,-295 393,-295 393,-295 428.96,-264.4 456.39,-241.05"/>
<polygon fill="none" stroke="black" points="456.53,-240.93 458.51,-234 465.67,-233.15 463.69,-240.09 456.53,-240.93"/>
</g>
<!-- b1 -->
<g id="node5" class="node">
<title>b1</title>
<polygon fill="none" stroke="black" points="518.5,-549 451.5,-549 451.5,-513 524.5,-513 524.5,-543 518.5,-549"/>
<polyline fill="none" stroke="black" points="518.5,-549 518.5,-543 "/>
<polyline fill="none" stroke="black" points="524.5,-543 518.5,-543 "/>
<text text-anchor="middle" x="488" y="-527.3" font-family="Times,serif" font-size="14.00">LUA绑定</text>
</g>
<!-- b2 -->
<g id="node6" class="node">
<title>b2</title>
<polygon fill="none" stroke="black" points="518.5,-470 451.5,-470 451.5,-434 524.5,-434 524.5,-464 518.5,-470"/>
<polyline fill="none" stroke="black" points="518.5,-470 518.5,-464 "/>
<polyline fill="none" stroke="black" points="524.5,-464 518.5,-464 "/>
<text text-anchor="middle" x="488" y="-448.3" font-family="Times,serif" font-size="14.00">LUA绑定</text>
</g>
<!-- AssetBundleArchive&#45;&gt;b1 -->
<g id="edge3" class="edge">
<title>AssetBundleArchive&#45;&gt;b1</title>
<path fill="none" stroke="black" d="M393.11,-531C408.43,-531 424.54,-531 439.01,-531"/>
<polygon fill="none" stroke="black" points="439.24,-531 445.24,-527 451.24,-531 445.24,-535 439.24,-531"/>
</g>
<!-- SerializedFile&#45;&gt;b2 -->
<g id="edge5" class="edge">
<title>SerializedFile&#45;&gt;b2</title>
<path fill="none" stroke="black" d="M374.63,-452C394.81,-452 418.61,-452 439.09,-452"/>
<polygon fill="none" stroke="black" points="439.36,-452 445.36,-448 451.36,-452 445.36,-456 439.36,-452"/>
</g>
<!-- 参数解析 -->
<g id="node15" class="node">
<title>参数解析</title>
<polygon fill="none" stroke="black" points="359.5,-115 291.5,-115 291.5,-79 365.5,-79 365.5,-109 359.5,-115"/>
<polyline fill="none" stroke="black" points="359.5,-115 359.5,-109 "/>
<polyline fill="none" stroke="black" points="365.5,-109 359.5,-109 "/>
<text text-anchor="middle" x="328.5" y="-93.3" font-family="Times,serif" font-size="14.00">参数解析</text>
</g>
<!-- 命令封装&#45;&gt;参数解析 -->
<g id="edge14" class="edge">
<title>命令封装&#45;&gt;参数解析</title>
<path fill="none" stroke="black" d="M206.13,-112.41C227.77,-109.66 255.54,-106.14 279.05,-103.15"/>
<polygon fill="none" stroke="black" points="279.36,-103.11 284.81,-98.39 291.26,-101.6 285.81,-106.33 279.36,-103.11"/>
</g>
<!-- 生命周期 -->
<g id="node16" class="node">
<title>生命周期</title>
<polygon fill="none" stroke="black" points="359.5,-36 291.5,-36 291.5,0 365.5,0 365.5,-30 359.5,-36"/>
<polyline fill="none" stroke="black" points="359.5,-36 359.5,-30 "/>
<polyline fill="none" stroke="black" points="365.5,-30 359.5,-30 "/>
<text text-anchor="middle" x="328.5" y="-14.3" font-family="Times,serif" font-size="14.00">生命周期</text>
</g>
<!-- 命令封装&#45;&gt;生命周期 -->
<g id="edge15" class="edge">
<title>命令封装&#45;&gt;生命周期</title>
<path fill="none" stroke="black" d="M198.2,-99C225.89,-81.32 264,-57 264,-57 264,-57 274.83,-50.35 287.55,-42.54"/>
<polygon fill="none" stroke="black" points="287.76,-42.41 290.77,-35.86 297.98,-36.13 294.96,-42.68 287.76,-42.41"/>
</g>
</g>
</svg>
